<svg width="128" height="129" viewBox="0 0 128 129" fill="none" xmlns="http://www.w3.org/2000/svg">
<g clip-path="url(#clip0_17_213)">
<path d="M63.9997 118.885C33.8557 118.885 9.33301 94.3622 9.33301 64.2182C9.33301 34.0742 33.8557 9.55151 63.9997 9.55151C94.1437 9.55151 118.666 34.0742 118.666 64.2182C118.666 94.3622 94.1437 118.885 63.9997 118.885ZM63.9997 20.2182C39.7383 20.2182 19.9997 39.9568 19.9997 64.2182C19.9997 88.4795 39.7383 108.219 63.9997 108.219C88.261 108.219 108 88.4795 108 64.2182C108 39.9568 88.261 20.2182 63.9997 20.2182Z" fill="white"/>
<path d="M64.0003 29.5518C61.0563 29.5518 58.667 27.1625 58.667 24.2185V5.55184C58.667 2.60784 61.0563 0.218506 64.0003 0.218506C66.9443 0.218506 69.3337 2.60784 69.3337 5.55184V24.2185C69.3337 27.1625 66.9443 29.5518 64.0003 29.5518Z" fill="white"/>
<path d="M122.667 69.5522H104C101.056 69.5522 98.667 67.1628 98.667 64.2188C98.667 61.2748 101.056 58.8855 104 58.8855H122.667C125.611 58.8855 128 61.2748 128 64.2188C128 67.1628 125.611 69.5522 122.667 69.5522Z" fill="white"/>
<path d="M64.0003 128.218C61.0563 128.218 58.667 125.829 58.667 122.885V104.218C58.667 101.274 61.0563 98.8855 64.0003 98.8855C66.9443 98.8855 69.3337 101.274 69.3337 104.218V122.885C69.3337 125.829 66.9443 128.218 64.0003 128.218Z" fill="white"/>
<path d="M24 69.5522H5.33333C2.38933 69.5522 0 67.1628 0 64.2188C0 61.2748 2.38933 58.8855 5.33333 58.8855H24C26.944 58.8855 29.3333 61.2748 29.3333 64.2188C29.3333 67.1628 26.944 69.5522 24 69.5522Z" fill="white"/>
<path d="M64 80.2185C55.1787 80.2185 48 73.0398 48 64.2185C48 55.3972 55.1787 48.2185 64 48.2185C72.8213 48.2185 80 55.3972 80 64.2185C80 73.0398 72.8213 80.2185 64 80.2185ZM64 58.8852C61.0613 58.8852 58.6667 61.2798 58.6667 64.2185C58.6667 67.1572 61.0613 69.5518 64 69.5518C66.9387 69.5518 69.3333 67.1572 69.3333 64.2185C69.3333 61.2798 66.9387 58.8852 64 58.8852Z" fill="white"/>
</g>
<defs>
<clipPath id="clip0_17_213">
<rect width="128" height="128" fill="white" transform="translate(0 0.218506)"/>
</clipPath>
</defs>
</svg>
