<svg width="54" height="46" viewBox="0 0 54 46" fill="none" xmlns="http://www.w3.org/2000/svg">
<path d="M29.104 10.4219C30.4759 12.058 31.2134 14.0183 31.2134 16.029V17.9688C31.9364 17.9688 32.6386 17.7629 33.2085 17.3838C33.7784 17.0048 34.1832 16.4745 34.3585 15.8769L34.5884 15.0938L35.2119 15.7311C36.2173 16.7588 36.7629 18.0564 36.7519 19.394C36.7411 20.7318 36.1744 22.0228 35.1525 23.0385C34.7694 23.419 34.5693 23.9088 34.5917 24.4096C34.6143 24.9106 34.8578 25.3857 35.274 25.7402C35.5062 25.9381 35.785 26.0921 36.0917 26.192C36.3987 26.2919 36.7269 26.3354 37.0548 26.3201C37.3829 26.3045 37.7033 26.2302 37.9954 26.1021C38.2875 25.9739 38.5445 25.7946 38.7497 25.5761L40.4946 23.7188L42.1821 27.3125C42.9474 29.4853 43.0076 31.7942 42.3566 33.9939C41.7056 36.1935 40.3675 38.202 38.4845 39.8061L38.2717 39.9874C35.3732 42.4566 31.4418 43.8438 27.3427 43.8438H25.621C22.9519 43.8438 20.3283 43.255 18.0056 42.1347C15.6829 41.0145 13.7404 39.401 12.3672 37.4513C10.7229 35.1168 9.9685 32.4054 10.208 29.6904C10.4476 26.9755 11.6692 24.3906 13.7046 22.2916L20.5352 15.248C21.2083 14.5538 21.6408 13.7137 21.7844 12.8217C21.9279 11.9298 21.7765 11.0214 21.3474 10.1987C20.8028 9.15511 20.7088 7.98112 21.0823 6.88424C21.4556 5.78738 22.2721 4.83827 23.3876 4.20469L26.9946 2.15625V4.81482C26.9946 6.82542 27.7322 8.78578 29.104 10.4219Z" fill="url(#paint0_linear_3_29)"/>
<path d="M33.2252 38.9393L33.2326 38.933C34.545 37.8064 35.4814 36.4024 35.9453 34.8653C36.4092 33.3282 36.3839 31.7136 35.8721 30.1875L33.4174 32.2785C33.1859 32.4759 32.9108 32.6324 32.6081 32.7392C32.3055 32.846 31.981 32.9011 31.6535 32.9011C31.3259 32.9011 31.0014 32.846 30.6989 32.7392C30.3961 32.6324 30.1211 32.4759 29.8895 32.2785C29.4493 31.9036 29.1894 31.4019 29.1612 30.8722C29.1329 30.3425 29.3381 29.8228 29.7366 29.4154C30.5573 28.5766 31.073 27.5521 31.2208 26.4675C31.3685 25.3829 31.142 24.2853 30.5687 23.3086L26.5908 16.5312L25.9791 22.2633C25.9057 22.9507 25.6701 23.6186 25.2864 24.2265C24.9026 24.8345 24.3787 25.3702 23.746 25.8015L20.2684 28.1716C19.3454 28.8006 18.6002 29.5984 18.088 30.5061C17.576 31.4137 17.3101 32.4077 17.3101 33.4148V34.2305C17.3101 35.2149 17.5642 36.1871 18.0542 37.0786C18.5443 37.97 19.2586 38.7587 20.1462 39.3888C21.5835 40.409 23.3997 40.9606 25.2703 40.9449L27.7086 40.9243C29.7824 40.9067 31.7645 40.1934 33.2252 38.9393Z" fill="#FDD04A"/>
<path d="M12.6562 17.25C12.4325 17.25 12.2179 17.1742 12.0596 17.0395C11.9014 16.9047 11.8125 16.7219 11.8125 16.5312V15.0938C11.8125 14.9031 11.9014 14.7203 12.0596 14.5855C12.2179 14.4508 12.4325 14.375 12.6562 14.375C12.88 14.375 13.0946 14.4508 13.2529 14.5855C13.4111 14.7203 13.5 14.9031 13.5 15.0938V16.5312C13.5 16.7219 13.4111 16.9047 13.2529 17.0395C13.0946 17.1742 12.88 17.25 12.6562 17.25Z" fill="#FE691E"/>
<path d="M15.1875 13.6562C14.9637 13.6562 14.7491 13.5805 14.5909 13.4457C14.4326 13.3109 14.3438 13.1281 14.3438 12.9375V11.5C14.3438 11.3094 14.4326 11.1266 14.5909 10.9918C14.7491 10.857 14.9637 10.7812 15.1875 10.7812C15.4113 10.7812 15.6259 10.857 15.7841 10.9918C15.9424 11.1266 16.0312 11.3094 16.0312 11.5V12.9375C16.0312 13.1281 15.9424 13.3109 15.7841 13.4457C15.6259 13.5805 15.4113 13.6562 15.1875 13.6562Z" fill="#FF8D54"/>
<path d="M11.8125 10.7812C11.5887 10.7812 11.3741 10.7055 11.2159 10.5707C11.0576 10.4359 10.9688 10.2531 10.9688 10.0625V8.625C10.9688 8.43437 11.0576 8.25155 11.2159 8.11677C11.3741 7.98198 11.5887 7.90625 11.8125 7.90625C12.0363 7.90625 12.2509 7.98198 12.4091 8.11677C12.5674 8.25155 12.6562 8.43437 12.6562 8.625V10.0625C12.6562 10.2531 12.5674 10.4359 12.4091 10.5707C12.2509 10.7055 12.0363 10.7812 11.8125 10.7812Z" fill="#FFB895"/>
<path d="M41.3438 19.4062C41.12 19.4062 40.9053 19.3305 40.7471 19.1958C40.5889 19.061 40.5 18.8781 40.5 18.6875V17.25C40.5 17.0594 40.5889 16.8765 40.7471 16.7417C40.9053 16.607 41.12 16.5312 41.3438 16.5312C41.5675 16.5312 41.7822 16.607 41.9404 16.7417C42.0986 16.8765 42.1875 17.0594 42.1875 17.25V18.6875C42.1875 18.8781 42.0986 19.061 41.9404 19.1958C41.7822 19.3305 41.5675 19.4062 41.3438 19.4062Z" fill="#FE691E"/>
<path d="M38.8125 14.375C38.5887 14.375 38.3741 14.2993 38.2158 14.1645C38.0577 14.0297 37.9688 13.8469 37.9688 13.6562V12.2188C37.9688 12.0281 38.0577 11.8453 38.2158 11.7105C38.3741 11.5757 38.5887 11.5 38.8125 11.5C39.0363 11.5 39.2509 11.5757 39.4092 11.7105C39.5673 11.8453 39.6562 12.0281 39.6562 12.2188V13.6562C39.6562 13.8469 39.5673 14.0297 39.4092 14.1645C39.2509 14.2993 39.0363 14.375 38.8125 14.375Z" fill="#FF8D54"/>
<path d="M42.1875 12.2188C41.9637 12.2188 41.7491 12.143 41.5908 12.0082C41.4327 11.8734 41.3438 11.6906 41.3438 11.5V9.34375C41.3438 9.15312 41.4327 8.9703 41.5908 8.83552C41.7491 8.70073 41.9637 8.625 42.1875 8.625C42.4113 8.625 42.6259 8.70073 42.7842 8.83552C42.9423 8.9703 43.0312 9.15312 43.0312 9.34375V11.5C43.0312 11.6906 42.9423 11.8734 42.7842 12.0082C42.6259 12.143 42.4113 12.2188 42.1875 12.2188Z" fill="#FFB895"/>
<defs>
<linearGradient id="paint0_linear_3_29" x1="26.4843" y1="2.15625" x2="26.4843" y2="43.8438" gradientUnits="userSpaceOnUse">
<stop stop-color="#FF9159"/>
<stop offset="0.6875" stop-color="#FF7631"/>
<stop offset="1" stop-color="#FF6A1F"/>
</linearGradient>
</defs>
</svg>
