<svg width="128" height="128" viewBox="0 0 128 128" fill="none" xmlns="http://www.w3.org/2000/svg">
<path d="M11.5033 127.215C17.7095 127.215 25.2621 122.564 33.951 113.39C39.2397 107.806 46.3163 104.604 53.3665 104.604H74.6337C81.7366 104.604 89.088 107.889 94.2992 113.39C103.111 122.693 110.371 127.215 116.497 127.215C119.921 127.215 127.897 125.401 127.999 108.603C128.104 91.3876 119.852 64.5921 107.4 52.1413C102.643 47.3844 97.5959 44.9726 92.3995 44.9726C85.8963 44.9726 82.8596 47.0316 80.1806 48.8484C78.1582 50.2197 76.2379 51.5213 72.1865 52.2777C73.8625 49.6445 75.25 46.4569 75.25 43.1088C75.25 35.2102 67.5338 28.1909 66.5003 27.2866C64.8546 25.7933 60.2502 20.7321 60.2502 16.7715C60.2502 12.8649 64.8586 7.94483 66.4741 6.52783C68.0283 5.17171 68.1845 2.82049 66.8221 1.2728C65.4581 -0.27638 63.0891 -0.433161 61.5306 0.922215C60.6319 1.70389 52.75 8.78862 52.75 16.7715C52.75 24.714 60.5852 32.0166 61.4786 32.8231C61.4959 32.8385 61.5131 32.8539 61.5306 32.8691C63.1441 34.2722 67.7498 39.1652 67.7498 43.1086C67.7498 46.3942 64.4901 50.3966 62.4959 52.4261H56.6825C52.026 51.7002 49.9813 50.3141 47.8193 48.8479C45.1404 47.0311 42.1037 44.9721 35.6005 44.9721C30.4041 44.9721 25.3571 47.3839 20.6 52.1408C8.14838 64.5919 -0.104008 91.3873 0.000990397 108.602C0.103239 125.401 8.07888 127.215 11.5033 127.215ZM25.9194 57.396C29.2171 54.0984 32.4745 52.4266 35.6007 52.4266C39.7892 52.4266 41.3022 53.4527 43.5926 55.0059C48.8078 58.5425 53.9292 59.8805 56.3985 59.8805H71.6015C74.1627 59.8805 79.2699 58.4896 84.4073 55.0059C86.6978 53.4527 88.2108 52.4266 92.3992 52.4266C95.5254 52.4266 98.7826 54.0984 102.081 57.396C113.052 68.3663 120.593 93.1633 120.499 108.557C120.465 114.133 119.215 119.761 116.497 119.761C114.734 119.761 109.574 118.642 99.7599 108.281C93.0597 101.207 83.9016 97.1502 74.6337 97.1502H53.3665C44.2574 97.1502 35.1903 101.207 28.4903 108.281C18.6762 118.642 13.3416 119.761 11.5036 119.761C8.78562 119.761 7.53489 114.133 7.50089 108.557C7.40689 93.1633 14.9483 68.3663 25.9194 57.396Z" fill="white"/>
<path d="M26.4999 82.242H30.2499V85.969C30.2499 88.0273 31.9289 89.696 33.9999 89.696C36.0708 89.696 37.7498 88.0273 37.7498 85.969V82.242H41.4998C43.5707 82.242 45.2497 80.5733 45.2497 78.515C45.2497 76.4567 43.5707 74.788 41.4998 74.788H37.7498V71.0609C37.7498 69.0027 36.0708 67.334 33.9999 67.334C31.9289 67.334 30.2499 69.0027 30.2499 71.0609V74.788H26.4999C24.429 74.788 22.75 76.4567 22.75 78.515C22.75 80.5733 24.429 82.242 26.4999 82.242Z" fill="white"/>
<path d="M93.999 74.7881C96.0701 74.7881 97.749 73.1195 97.749 71.061C97.749 69.0026 96.0701 67.334 93.999 67.334C91.928 67.334 90.249 69.0026 90.249 71.061C90.249 73.1195 91.928 74.7881 93.999 74.7881Z" fill="white"/>
<path d="M93.999 89.6951C96.0701 89.6951 97.749 88.0265 97.749 85.9681C97.749 83.9099 96.0701 82.2412 93.999 82.2412C91.928 82.2412 90.249 83.9099 90.249 85.9681C90.249 88.0265 91.928 89.6951 93.999 89.6951Z" fill="white"/>
<path d="M86.5 82.2422C88.5711 82.2422 90.25 80.5736 90.25 78.5151C90.25 76.4567 88.5711 74.7881 86.5 74.7881C84.4289 74.7881 82.75 76.4567 82.75 78.5151C82.75 80.5736 84.4289 82.2422 86.5 82.2422Z" fill="white"/>
<path d="M101.499 82.2422C103.57 82.2422 105.249 80.5736 105.249 78.5151C105.249 76.4567 103.57 74.7881 101.499 74.7881C99.428 74.7881 97.749 76.4567 97.749 78.5151C97.749 80.5736 99.428 82.2422 101.499 82.2422Z" fill="white"/>
<path d="M56.4999 82.2422H71.4997C73.5707 82.2422 75.2497 80.5734 75.2497 78.5151C75.2497 76.4568 73.5707 74.7881 71.4997 74.7881H56.4999C54.429 74.7881 52.75 76.4568 52.75 78.5151C52.75 80.5734 54.429 82.2422 56.4999 82.2422Z" fill="white"/>
</svg>
