<svg width="128" height="129" viewBox="0 0 128 129" fill="none" xmlns="http://www.w3.org/2000/svg">
<g clip-path="url(#clip0_17_201)">
<path d="M63.9999 0.218506C28.711 0.218506 0 28.9295 0 64.2184C0 99.5072 28.711 128.219 63.9999 128.219C99.2887 128.219 128 99.5072 128 64.2184C128 28.9295 99.289 0.218506 63.9999 0.218506ZM63.9999 117.088C34.8493 117.088 11.1303 93.369 11.1303 64.2184C11.1303 35.0678 34.8493 11.349 63.9999 11.349C93.1505 11.349 116.869 35.0678 116.869 64.2184C116.869 93.369 93.1505 117.088 63.9999 117.088Z" fill="white"/>
<path d="M93.7958 34.4276C92.989 33.615 91.7702 33.3813 90.7293 33.8378L51.7729 50.5335C51.1163 50.8118 50.593 51.3403 50.3092 51.9972L33.6135 90.9536C33.1627 92 33.3965 93.213 34.2033 94.0201C34.7376 94.5432 35.45 94.827 36.1734 94.827C36.5407 94.827 36.9135 94.749 37.2699 94.6045L76.2263 77.9088C76.8829 77.625 77.4062 77.102 77.69 76.4451L94.3857 37.4887C94.831 36.4423 94.5972 35.229 93.7958 34.4276ZM63.9996 69.7835C60.9331 69.7835 58.4345 67.2847 58.4345 64.2184C58.4345 61.1519 60.9333 58.6533 63.9996 58.6533C67.0661 58.6533 69.5647 61.1522 69.5647 64.2184C69.565 67.2847 67.0661 69.7835 63.9996 69.7835Z" fill="white"/>
</g>
<defs>
<clipPath id="clip0_17_201">
<rect width="128" height="128" fill="white" transform="translate(0 0.218506)"/>
</clipPath>
</defs>
</svg>
